<?xml version="1.0" encoding="UTF-8" standalone="no"?>
<svg
   viewBox="0 0 32 32"
   version="1.1"
   id="svg4"
   sodipodi:docname="exportto.svg"
   inkscape:version="1.3.2 (091e20e, 2023-11-25, custom)"
   inkscape:export-filename="exportto.png"
   inkscape:export-xdpi="96"
   inkscape:export-ydpi="96"
   xmlns:inkscape="http://www.inkscape.org/namespaces/inkscape"
   xmlns:sodipodi="http://sodipodi.sourceforge.net/DTD/sodipodi-0.dtd"
   xmlns="http://www.w3.org/2000/svg"
   xmlns:svg="http://www.w3.org/2000/svg">
  <defs
     id="defs4">
    <inkscape:path-effect
       effect="fill_between_many"
       method="originald"
       linkedpaths="#path13,0,1|#path14,0,1|#path15,0,1|"
       id="path-effect15" />
  </defs>
  <sodipodi:namedview
     id="namedview4"
     pagecolor="#ffffff"
     bordercolor="#000000"
     borderopacity="0.25"
     inkscape:showpageshadow="2"
     inkscape:pageopacity="0.0"
     inkscape:pagecheckerboard="0"
     inkscape:deskcolor="#d1d1d1"
     inkscape:zoom="8"
     inkscape:cx="8.3125"
     inkscape:cy="21"
     inkscape:window-width="1440"
     inkscape:window-height="830"
     inkscape:window-x="-3"
     inkscape:window-y="-3"
     inkscape:window-maximized="1"
     inkscape:current-layer="svg4" />
  <path
     d="m 6,3 v 26 h 8.191406 c 0.0051,-0.0074 0.0087,-0.01219 0.01367,-0.01953 a 3.3047829,3.1611516 0 0 1 -0.05859,-0.419922 3.3047829,3.1611516 0 0 1 3.304688,-3.160156 3.3047829,3.1611516 0 0 1 1.763672,0.503906 l 1.80664,-2.892578 c -1.227263,-2.02229 -2.696434,-4.354631 -3.880859,-6.378907 -0.500459,-0.798141 0.08888,-1.622385 0.558594,-2.261718 l 0.564453,-0.865235 c 1.393226,2.241063 3.002047,4.637908 4.396484,6.88086 l 3.326172,-5.330078 0.01172,-4.423828 V 10 h -6 c -0.508622,0 -1,-0.3273587 -1,-1 V 3 Z"
     style="fill:#fafafa"
     id="path24" />
  <path
     d="M 25.998047,10 19,3 h -0.002 v 6 c 0,0.672642 0.491378,1 1,1 z"
     style="fill:#3a3a38"
     id="path23" />
  <path
     d="m 5.9980469,2 c -0.5539985,0 -1,0.4460018 -1,1 v 26 c 0,0.277585 0.1134973,0.526193 0.2949218,0.707031 0.090139,0.08985 0.1952405,0.164588 0.3144532,0.214844 h 0.00195 L 5.9980469,30 H 6 14.527344 a 3.3047829,3.1611516 0 0 1 -0.294922,-0.824219 c -0.01297,-0.0559 -0.02806,-0.111177 -0.03711,-0.167969 L 14.191406,29 c 0,0 -0.002,0.002 -0.002,0.002 C 11.360088,29.000153 8.8277485,29.0012 6,29 L 5.9980469,3 H 6 18.998047 19 l 6.998047,7 H 26 l -0.002,0.632813 0.002,4.410156 1,-1.609375 -0.002,-5.0488284 L 20.490234,2 Z"
     style="fill:#3a3a38"
     id="path22" />
  <path
     d="m20 9h6l-6-6z"
     fill="#fafafa"
     fill-rule="evenodd"
     id="path3" />
  <path
     d="m 18.3654,14.646643 c -0.633855,1.031032 -0.964842,1.031032 -0.330988,2.062063 l 3.887187,6.331179 -2.082147,3.350852 a 3.2842232,3.1724051 0 0 1 0.821055,1.399079 l 1.108426,-1.803066 c 0.856799,-0.01035 0.964053,-0.799568 1.463788,-0.810449 l 1.597211,2.601123 A 3.2842232,3.1724051 0 0 1 25.65612,26.38454 l -2.079581,-3.344655 3.887188,-6.331179 c 0.633854,-1.031031 0.304147,-1.031031 -0.329708,-2.062063 l -4.38495,7.059839 z m 4.377255,8.248252 a 0.65684468,0.634481 0 0 1 0.656844,0.634481 0.65684468,0.634481 0 0 1 -0.656844,0.634482 0.65684468,0.634481 0 0 1 -0.656845,-0.634482 0.65684468,0.634481 0 0 1 0.656845,-0.634481 z"
     fill="#3a3a38"
     id="path1-6"
     style="stroke-width:0.645565" />
  <g
     fill="#1e8bcd"
     id="g3"
     transform="matrix(0.65684468,0,0,0.634481,12.233143,12.743198)">
    <path
       d="m 8,21 a 4,4 0 0 0 -4,4 4,4 0 0 0 4,4 4,4 0 0 0 4,-4 4,4 0 0 0 -4,-4 z m 0,1 a 3,3 0 0 1 3,3 3,3 0 0 1 -3,3 3,3 0 0 1 -3,-3 3,3 0 0 1 3,-3 z"
       opacity="0.99"
       id="path2-1"
       style="display:inline" />
    <path
       d="m 24,21 a 4,4 0 0 0 -4,4 4,4 0 0 0 4,4 4,4 0 0 0 4,-4 4,4 0 0 0 -4,-4 z m 0,1 a 3,3 0 0 1 3,3 3,3 0 0 1 -3,3 3,3 0 0 1 -3,-3 3,3 0 0 1 3,-3 z"
       opacity="0.99"
       id="path3-5"
       style="display:inline" />
  </g>
  <path
     inkscape:original-d="M 0,0"
     inkscape:path-effect="#path-effect15"
     d="M 0,0"
     id="path16" />
</svg>
